<?xml version="1.0" encoding="UTF-8" standalone="no"?>
<!-- Copyright 2017 mathsisfun.com -->
<svg xmlns="http://www.w3.org/2000/svg" width="360" height="248.5" version="1.1">
<defs>
<marker id="id1" style="overflow:visible;" orient="auto">
<path transform="matrix(0.4,0,0,0.4,4,0)" style="fill:#0084c8; stroke:#0084c8; stroke-width:1pt;" d="M 0,0 5,-5 -12.5,0 5,5 0,0 Z"/>
</marker>
<marker id="id2" style="overflow:visible;" orient="auto">
<path transform="matrix(-0.4,0,0,-0.4,-4,0)" style="stroke:black; stroke-width:1pt;" d="M 0,0 5,-5 -12.5,0 5,5 0,0 Z"/>
</marker>
</defs>
<g transform="translate(2.1637475,-514.07458)">
<g transform="matrix(0.15753961,0,0,0.15753961,125.27864,545.92739)">
<path style="fill:#73d216; stroke-width:0.44px;" d="m 325.1,1192.8 c -1.4,0.7 -4.4,0.9 -7.5,0.9 -2.9,0 -5.2,2 -7.5,3.7 -1.1,0.8 -4.3,1.2 -5.6,1.9 -2,1 -2.8,1.6 -2.8,4.2 0,3.2 1.4,3.3 4.2,4.7 2.9,1.4 6.9,0.9 10.3,0.9 3.7,0 4.6,-1.4 7.5,-2.8 2.1,-1.1 2.8,-1.4 6.1,-1.4 1.2,0 2,2.3 4.7,2.3 2.6,0 5.3,0 7.9,0 3.1,0 2.6,-1.5 3.3,-4.2 0.5,-2 0,-4.9 0,-7 0,-0.4 -3.9,-3 -4.2,-3.3 -1.1,-1.1 -3.3,-1.4 -5.6,-1.4 -2.2,0 -5,0 -6.5,0.5 -1.9,0.5 -1.7,-0 -4.2,0.9 z"/>
<path style="fill:#73d216; stroke-width:0.44px;" d="m 375,1193 c 1.4,0.9 4.4,1.5 7.5,1.9 3,0.4 5,2.7 7.1,4.6 1,1 4.2,1.8 5.5,2.5 1.9,1.3 2.7,1.9 2.3,4.5 -0.4,3.1 -1.8,3.1 -4.8,4.1 -3.1,1.1 -9.1,-0.2 -12.5,-0.6 -3.8,-0.5 -4.6,-2 -7.2,-3.7 -2,-1.3 -2.7,-1.7 -6,-2.1 -1.2,-0.1 -0.4,2.3 -3,2 -2.7,-0.3 -5.4,-0.7 -8.1,-1 -3.2,-0.4 -2.4,-1.8 -2.8,-4.6 -0.3,-2.1 0.6,-4.8 0.9,-6.9 0,-0.4 4.3,-2.5 4.7,-2.7 1.3,-1 3.6,-1 5.9,-0.7 2.3,0.3 5.1,0.7 6.6,1.3 1.9,0.7 1.8,0.2 4.2,1.4 z"/>
<path style="fill:#73d216;" d="m 313.7,1058.3 c 5,0.5 8.6,6.5 8.1,11.1 -0,3.7 -0.4,12.2 -5.6,10.9 0.2,-1.8 3.7,-6.4 1.7,-7 -0,2.4 -2.3,9.3 -5.4,6.3 2,-1.6 2.6,-9.3 1.3,-3.4 0.3,3.1 -6.5,6.5 -3.9,1.7 2,-1.3 0.9,-8.4 0.7,-3.8 0.6,2.7 -4.2,8.9 -4.8,4.8 4,-5.9 -0.6,-14 3.9,-19.7 1,-1 2.6,-1.2 4,-1 z"/>
<path style="fill:#73d216;" d="m 320,1063.9 c -2.2,15.9 -2.2,22.4 -2.7,42.8 -1.9,18 1.1,36.3 -2.7,54.3 1.6,8.1 0.9,14.6 0.9,35.6 10.8,-4.7 36.4,4.2 29.9,-8.9 -1.9,-10.8 -4.6,-28.4 -2.2,-39.6 3.9,-19.2 -0.6,-33.1 3.5,-52.2 2,15.3 2.8,24.9 2.1,40.3 -1,15.1 4.3,44.7 4.3,59.8 7.9,-3.3 31.5,6.9 28.4,-5.8 0.8,-18.4 -6.3,-51.4 -4.6,-69.8 0.6,-13 -0.8,-26 -0,-38.8 -0,-8.3 0,-8.6 -0.6,-17.3 -18.3,0 -37.8,-0.4 -56.1,-0.4 z"/>
<path style="fill:#73d216;" d="m 347.4,937.9 c -7,0 -11.9,2.2 -13.7,12 -0.5,2.6 -4.8,4.5 -5.5,7.3 -0.5,1.9 4.6,1.3 3.5,2.8 -0.4,0.6 -1.1,2.9 -1.3,3.5 -0.1,0.4 1.3,0.8 1.2,1.3 -0.2,0.7 -1.6,0.2 -1.6,0.7 -0,1.1 -0.4,3.3 -0.4,4 -0.2,3.1 3,3.5 6.9,5 1,0.4 1.2,3.1 2,4.8 0.2,3.8 -1.7,3.5 -5.7,7.1 9.6,6.9 19.4,6.9 27,-0.4 -4.2,-5.3 -4.6,-4.2 -6,-8.2 0.8,-10.8 5.3,-11 7.5,-16.1 4.7,-10.9 0.5,-23.2 -11,-23.6 -1,-0 -2,-0.2 -3,-0.2 z"/>
<path style="fill:#73d216;" d="m 389.2,1079.5 c -5,0.5 -8.6,6.5 -8.1,11.1 0,3.7 0.4,12.2 5.6,10.9 -0.2,-1.8 -3.7,-6.4 -1.7,-7 0,2.4 2.3,9.3 5.4,6.3 -2,-1.6 -2.6,-9.3 -1.3,-3.4 -0.3,3.1 6.5,6.5 3.9,1.7 -2,-1.3 -0.9,-8.4 -0.7,-3.8 -0.6,2.7 4.2,8.9 4.8,4.8 -4,-5.9 0.6,-14 -3.9,-19.7 -1,-1 -2.6,-1.2 -4,-1 z"/>
<path style="fill:#73d216;" d="m 336.2,982.8 c -10.4,4.3 -15.3,6.4 -21.7,9 l 0,1.6 -0.4,-0.3 c -1.4,1.3 -2.7,2.8 -4.1,4.3 l -1.7,2 c -3.7,3.8 -5.1,6 -8.8,11.4 -3.4,5 -9.2,13.1 -10,18.5 -0.6,9.7 11.2,24.1 18,38.1 l 12.3,-6.2 c -2.4,-8.3 -4.6,-6.7 -9.1,-13.7 -5.1,-7.9 -3.9,-10.8 -6.8,-18.8 2.4,-5.3 12.4,-12.9 15.3,-16.5 l 0.3,9 c 0.2,12.1 1.2,28.1 0.4,43.1 l 56.8,0.4 c -2.2,-16.4 -2.3,-22.8 -2.4,-31 l 1.2,-13.6 1.3,-8.5 c 3.3,5.1 6.4,10.4 9.4,15.7 3,5.4 5.5,9.3 8.3,13.8 -1.6,9.6 -4.2,18.8 -7,28 -2.6,8.3 -1.7,3.9 -4.2,12.2 l 12.3,6.3 c 9,-21.7 12.1,-29.9 13.6,-44.4 l 0.5,-2.1 c -0.5,-1.1 0.3,-0.8 -0.2,-1.9 l -1.7,-3.6 c -10.1,-21.5 -20.2,-37.2 -30.3,-47.1 l -2.1,1.3 -0.1,-1.2 -16.7,-5.3 c -1.9,1.6 -4.1,1.5 -5.8,2.3 -3.6,1.7 -7.3,2.6 -16.4,-3 z"/>
<path style="fill:#73d216;" d="m 354.3,934.2 c -7.1,0 -14.7,-5.4 -16.5,6.6 -0.5,3.2 8.6,1.2 7.9,4.6 -0.5,2.3 2,6.3 0.9,8.2 -3.7,6.2 -1.1,7.4 2.3,5.4 2.1,-1.3 2.5,-9.1 7.9,-5.7 4.2,2.7 -0.5,8 -2.2,8.8 0.3,4.7 2.1,2.5 -1.9,6.8 1.5,-0.4 -0.9,9.3 6.8,0.5 2.5,-5.6 -0.8,-0.7 2.5,-7 3.5,-11.3 8.5,-15.3 1,-21.8 -0.8,-0.7 -7.6,-6.3 -8.6,-6.3 z"/>
<rect x="319.4" y="1065.3" width="57.6" height="4.2" style="fill:#73d216;"/>
<path style="fill:#73d216;" d="m 321.1,1064.8 0,5.9 2.3,0 0,-5.9 -2.3,0 z m 10.8,0 0,5.9 2.3,0 0,-5.9 -2.3,0 z m 22,0 0,5.9 2.3,0 0,-5.9 -2.3,0 z m 13.1,0 0,5.9 2.3,0 0,-5.9 -2.3,0 z"/>
<path style="fill:#73d216;" d="m 342.6,1064.7 c -0.7,0 -1.2,0.5 -1.2,1.1 l 0,3.3 c 0,0.6 0.5,1.1 1.2,1.1 l 6.7,0 c 0.7,0 1.2,-0.5 1.2,-1.1 l 0,-3.3 c 0,-0.6 -0.5,-1.1 -1.2,-1.1 l -6.7,0 z m 0.5,0.7 5.6,0 c 0.5,0 0.9,0.4 0.9,0.8 l 0,2.4 c 0,0.4 -0.4,0.8 -0.9,0.8 l -5.6,0 c -0.5,0 -0.9,-0.4 -0.9,-0.8 l 0,-2.4 c 0,-0.4 0.4,-0.8 0.9,-0.8 z"/>
<path style="fill:#73d216; stroke-width:0.22;" d="m 335.4,981.1 3,-0.7 -0.1,2.1 2.4,2.3 1.2,2.2 -4.6,-0.1 -3.5,4.7 c 0.5,-3.7 0.7,-9 1.6,-10.5 z"/>
<path style="fill:#73d216; stroke-width:0.18;" d="m 353,1055.7 -6.7,7.6 -7.2,-7.6 4,-66 5.6,0.1 4.2,65.9 z"/>
<path style="fill:#73d216; stroke-width:0.22;" d="m 357.8,981 -3,-0.7 0.1,2.1 -2.4,2.3 -1.2,2.2 4.6,-0.1 3.5,4.7 c -0.5,-3.7 -0.7,-9 -1.6,-10.5 z"/>
<path style="fill:#73d216; stroke-width:0.34;" d="m 340.6,985.3 10.7,0 -2.2,6.1 -6,-0.3 -2.5,-5.8 z"/>
</g>
<path style="color:black; overflow:visible; fill:none; stroke:#73d216; stroke-width:2.87;" d="m 53.6,646.4 c 0,0 46.4,-41.7 86.4,-39.8 35,1.7 57.1,30.2 83.8,9.9 26.7,-20.3 20.7,-69.4 59,-77.7 54.3,-11.7 84.1,79.6 55.2,122.3 -27.9,41.2 -54,-11.3 -111.1,32.2 -38.5,29.3 -51.9,43.4 -51.9,43.4"/>
<path style="color:black; marker-start:url(#id1); overflow:visible; fill:none; stroke:#0084c8; stroke-width:1.92; stroke-dasharray:7.7, 7.7;" d="m 181.9,743.8 c 6.1,-6.2 30.1,-27.8 49.1,-42.3 27,-20.6 39.4,-14.4 58.4,-13.8 9.5,0.3 18.9,0.8 28.4,-2 9.5,-2.7 18.7,-9.1 26.4,-20.5 15.5,-22.9 15.7,-55.5 6.4,-83.1 -4.7,-13.8 -11.8,-26.4 -21.5,-35.9 -9.7,-9.5 -22.1,-15.8 -36.2,-16 -3.8,-0 -7.6,0.3 -11.5,1.2 -11.1,2.4 -19.6,8.1 -25.7,15.2 -6.1,7.1 -10,15.4 -13.5,23.6 -6.8,16.4 -12,32.1 -22.8,40.3 -5.6,4.3 -10.2,5.6 -15.1,5.7 -4.9,0.1 -10.4,-1.2 -16.7,-3.5 -12.5,-4.5 -27.8,-12.7 -47.2,-13.6 -22.7,-1.1 -45.2,9.7 -62.4,20.3 -17.2,10.6 -29.3,21.4 -29.3,21.4"/>
<path style="color:black; marker-end:url(#id2); overflow:visible; fill:none; stroke:black; stroke-width:1.99;" d="m 55.6,647.9 113.7,90"/>
<text x="469.8" y="460.7" transform="matrix(0.77603659,0.63068789,-0.63068789,0.77603659,0,0)" style="font-family:'Comic Sans MS'; font-size:18.2px; color:black; overflow:visible; fill:black; stroke-width:1px;">Displacement</text>
<g>
<path style="font-family:'Comic Sans MS'; font-size:22.5px; fill:#0084c8;" d="m 235.7,548 q -0.8,-0.6 -1.7,-1 -0.9,-0.3 -1.9,-0.3 -0.9,0 -1.8,0.6 -0.9,0.5 -1.6,1.6 -0.5,0.8 -0.8,1.5 -0.3,0.7 -0.5,1.2 -0.2,0.6 -0.3,1.2 -0.1,0.5 -0.3,1.1 -0.2,0.8 0.2,1.4 0.4,0.6 1,0.8 l 7.5,5.9 q 0.4,0.3 0.8,0.6 0.4,0.3 0.8,0.5 0.4,0.2 0.7,0.1 0.3,-0 0.6,-0.4 0.3,-0.5 0.7,-1.5 0.4,-1 0.6,-2.3 0.2,-1.3 0.2,-2.7 0,-1.5 -0.3,-3 -0.4,-1.5 -1.2,-2.9 -0.9,-1.4 -2.3,-2.6 z m -1.2,1.8 q 1.4,1.1 2.1,2.6 0.7,1.4 0.8,2.9 0.2,1.5 -0,2.9 -0.2,1.4 -0.6,2.4 l -8,-6.3 q 0,-0.8 0.3,-1.9 0.3,-1.1 0.9,-2.1 0.5,-0.7 1,-1 0.6,-0.3 1.2,-0.3 0.6,-0 1.2,0.2 0.6,0.2 1.1,0.6 z"/>
<path style="font-family:'Comic Sans MS'; font-size:22.5px; fill:#0084c8;" d="m 236.2,541.4 q -0.3,-0.3 -0.7,-0.3 -0.4,-0 -0.8,0.5 -0.4,0.6 -0.4,1.2 0,0.6 0.9,1.3 0.2,0.2 0.5,0.3 0.3,0 0.6,0 0.3,-0 0.5,-0.1 0.2,-0 0.3,-0.2 0.5,-0.7 0.4,-1.4 -0.2,-0.7 -0.7,-1.2 z m 8.9,8.3 -4.8,-4.2 q -0.6,-0.5 -0.9,-0.8 -0.3,-0.3 -0.6,-0.3 -0.3,-0 -0.4,0 -0.2,0.1 -0.3,0.3 -0.3,0.4 -0.4,0.7 -0,0.3 0,0.6 0.1,0.3 0.5,0.6 0.3,0.3 0.8,0.7 l 4.8,4.1 q 0.3,0.2 0.5,0.4 0.2,0.2 0.5,0.3 0.2,0 0.4,0 0.2,-0 0.5,-0.4 0.3,-0.3 0.3,-0.6 0,-0.3 -0,-0.5 -0.1,-0.3 -0.4,-0.5 -0.2,-0.3 -0.5,-0.5 z"/>
<path style="font-family:'Comic Sans MS'; font-size:22.5px; fill:#0084c8;" d="m 251,538 q -0.4,-0.5 -0.9,-0.6 -0.5,-0.2 -0.9,-0.1 -0.4,0 -0.8,0.3 -0.4,0.2 -0.7,0.5 -0.5,0.6 -0.9,1.3 -0.4,0.7 -0.7,1.5 -0.3,0.7 -0.5,1.3 -0.2,0.6 -0.4,0.8 -0.3,0.3 -0.4,0.3 -0.1,-0 -0.2,-0.1 -0.3,-0.3 -0.4,-0.8 -0,-0.6 0,-1.3 0.2,-0.7 0.6,-1.5 0.4,-0.8 1.2,-1.7 0,-0 0.2,-0.2 0.2,-0.1 0.3,-0.3 0.2,-0.2 0.4,-0.4 0.2,-0.2 0.3,-0.4 0.1,-0.4 0,-0.7 -0.1,-0.3 -0.4,-0.5 -0.3,-0.1 -0.8,0 -0.5,0.1 -1,0.7 -0.8,0.9 -1.5,2.1 -0.6,1.2 -0.9,2.4 -0.3,1.2 -0.2,2.3 0.1,1.1 0.9,2 0.2,0.2 0.6,0.4 0.3,0.2 0.7,0.2 0.4,0 0.9,-0.2 0.4,-0.2 0.9,-0.7 0.4,-0.5 0.7,-1.1 0.3,-0.7 0.6,-1.4 0.3,-0.7 0.5,-1.3 0.2,-0.6 0.5,-1 0.2,-0.2 0.4,-0.2 0.3,-0 0.5,0.1 0.4,0.4 0.5,1 0.1,0.7 0,1.5 -0,0.8 -0.4,1.6 -0.3,0.8 -0.9,1.4 -0.3,0.3 -0.8,0.5 -0.5,0.2 -1.4,0.4 -0.2,0 -0.4,0.2 -0.2,0.2 -0.4,0.4 -0.1,0.2 -0.1,0.6 0,0.3 0.2,0.5 0.3,0.4 0.9,0.4 0.6,0 1.2,-0.2 0.6,-0.2 1.2,-0.6 0.6,-0.4 1,-0.9 0.8,-0.9 1.3,-2.1 0.5,-1.2 0.6,-2.4 0.1,-1.2 -0.2,-2.3 -0.3,-1.1 -1,-1.8 z"/>
<path style="font-family:'Comic Sans MS'; font-size:22.5px; fill:#0084c8;" d="m 259.9,533.4 0,0.7 q -0,0.4 -0.2,0.9 -0,0.5 -0.3,1.1 -0.2,0.6 -0.6,1.1 -0.3,0.6 -0.8,1 -0.2,0.2 -0.5,0.3 -0.2,0.1 -0.5,0.1 -0.3,0 -0.5,-0.1 -0.3,-0.1 -0.6,-0.5 l -4.4,-5.6 -0.5,0.7 q -1,0.9 -1.4,0.4 -0.3,-0.3 -0.3,-0.7 -0,-0.4 0.3,-0.9 l 0.8,-1 -1,-1.3 q -1,-1.2 -0,-2 0.2,-0.2 0.4,-0.2 0.2,-0 0.4,0 0.2,0 0.4,0.3 0.2,0.2 0.4,0.4 l 0.8,1 1.7,-2 q 0.3,-0.5 0.5,-0.6 0.2,-0.2 0.4,-0.2 0.2,-0 0.3,0.1 0.2,0.1 0.3,0.3 0.3,0.2 0.2,0.6 -0,0.3 -0.5,1.1 l -1.8,2.2 3.8,4.9 q 0.1,0.2 0.2,0.2 0.1,-0 0.2,-0.1 0.4,-0.3 0.4,-0.7 0,-0.4 0,-0.6 0,-0.4 0.2,-0.8 0.2,-0.4 0.5,-0.6 0.3,-0.2 0.7,-0.2 0.4,0 0.7,0.4 z"/>
<path style="font-family:'Comic Sans MS'; font-size:22.5px; fill:#0084c8;" d="m 270.2,527.3 -3.2,-5.8 q -0.4,-0.7 -0.8,-1 -0.4,-0.3 -0.8,-0.4 -0.4,-0 -0.8,0.1 -0.4,0.1 -0.7,0.3 -1.1,0.7 -2.2,1.8 -1.1,1.1 -1.7,2.4 -0,0.1 -0.2,0.3 -0.1,0.1 -0.2,0.3 -0,0.2 -0,0.4 0,0.2 0.1,0.4 0.2,0.5 0.5,0.4 0.3,-0 0.6,-0.3 0.3,-0.3 0.5,-0.6 0.2,-0.4 0.3,-0.5 0.4,-0.4 0.7,-0.8 0.3,-0.4 0.6,-0.8 0.3,-0.4 0.6,-0.7 0.3,-0.3 0.7,-0.6 0,-0 0.2,-0.1 0.1,-0 0.3,-0.1 0.1,-0 0.3,0 0.1,0 0.2,0.2 l 0.6,1.1 q -1.4,1 -2.4,2 -1.1,1 -1.7,2 -0.6,1 -0.8,2 -0.1,1 0.3,2 0.2,0.4 0.6,0.8 0.4,0.4 0.9,0.6 0.5,0.2 1.1,0.2 0.6,0 1,-0.3 0.7,-0.4 1.3,-1 0.6,-0.6 1.1,-1.2 0.5,-0.6 0.8,-1.2 0.4,-0.6 0.6,-0.9 0.2,0.3 0.2,0.5 0.1,0.2 0.2,0.3 0.2,0.1 0.4,0 0.2,-0 0.6,-0.3 0.6,-0.4 0.6,-0.8 0,-0.4 -0.4,-1.1 z m -2.7,-1 q 0,0 -0.1,0.4 -0.1,0.3 -0.3,0.8 -0.2,0.5 -0.5,1 -0.3,0.6 -0.7,1.1 -0.4,0.5 -0.8,0.9 -0.4,0.4 -0.9,0.6 0,0 -0.2,0 -0.2,0 -0.4,0 -0.2,-0 -0.5,-0.2 -0.3,-0.2 -0.5,-0.5 -0.2,-0.5 0,-1.1 0.3,-0.7 0.8,-1.5 0.6,-0.8 1.3,-1.6 0.8,-0.8 1.6,-1.5 z"/>
<path style="font-family:'Comic Sans MS'; font-size:22.5px; fill:#0084c8;" d="m 280.9,522.3 0.2,1 q 0.3,0.7 0,1.2 -0.2,0.5 -0.7,0.6 -0.6,0.1 -0.9,-0 -0.3,-0.2 -0.5,-1 l -1.4,-6.1 q -0,-0.1 -0.1,-0.3 -0.1,-0.2 -0.3,-0.1 -0,0 -0.5,0.2 -0.4,0.1 -0.8,0.4 -0.5,0.3 -1,0.8 -0.5,0.4 -0.9,1.1 l 1,5.4 q 0,0.2 0.1,0.4 0,0.2 -0,0.5 -0,0.2 -0.3,0.5 -0.2,0.2 -0.5,0.4 -0.4,0.2 -0.7,-0 -0.3,-0.2 -0.4,-0.6 -0,-0.1 -0,-0.3 -0,-0.1 -0,-0.3 -0.3,-1.4 -0.5,-2.1 -0.2,-0.7 -0.3,-1.1 -0,-0.4 -0.1,-0.7 -0,-0.3 -0.2,-0.8 l -0.6,-2.7 q -0.2,-0.5 0,-1 0.2,-0.5 0.8,-0.8 0.4,-0.2 0.6,-0.2 0.2,-0 0.3,0 0,0 0.1,0.3 0,0.2 0.2,0.3 l 0.2,0.4 q 0.3,-0.2 0.8,-0.5 0.5,-0.4 1.1,-0.8 0.6,-0.4 1.1,-0.7 0.5,-0.3 0.9,-0.4 0.3,-0 0.6,-0 0.4,0 0.7,0.2 0.3,0.1 0.6,0.4 0.2,0.2 0.3,0.6 z"/>
<path style="font-family:'Comic Sans MS'; font-size:22.5px; fill:#0084c8;" d="m 292.9,521.8 -0.8,0.9 q -0.2,0.3 -0.6,0.7 -0.4,0.4 -1,0.8 -0.6,0.3 -1.5,0.6 -0.9,0.3 -2,0.3 -0.9,0 -1.6,-0.3 -0.6,-0.3 -1,-0.8 -0.4,-0.5 -0.6,-1.2 -0.2,-0.7 -0.1,-1.4 0,-1.4 0.6,-2.6 0.6,-1.3 1.4,-2.2 0.8,-1 1.9,-1.5 1.1,-0.6 2.2,-0.6 0.9,-0 1.6,0.1 0.7,0.1 1.4,0.6 0.6,0.5 0.7,0.9 0,0.4 -0.2,0.7 -0.2,0.2 -0.7,0.3 -0.5,0 -0.9,-0.2 -0.2,-0.3 -0.7,-0.4 -0.5,-0.1 -1.2,-0.1 -0.7,0 -1.3,0.4 -0.6,0.4 -1.2,1.1 -0.6,0.7 -0.9,1.6 -0.4,0.9 -0.4,1.9 -0,0.3 0,0.7 0,0.3 0.2,0.6 0.2,0.3 0.5,0.4 0.3,0.2 0.7,0.2 0.7,-0 1.3,-0.2 0.6,-0.2 1.1,-0.5 0.5,-0.3 0.8,-0.7 0.4,-0.4 0.5,-0.7 0,-0 0.1,-0.2 0,-0.2 0.2,-0.3 0.2,-0.2 0.4,-0.3 0.2,-0.1 0.7,-0.1 0.9,-0 0.9,0.6 0,0.6 -0.5,1.4 z"/>
<path style="font-family:'Comic Sans MS'; font-size:22.5px; fill:#0084c8;" d="m 304.5,518.6 q -0.1,0.7 -0.9,1.2 -0.8,0.5 -1.9,0.8 -1.1,0.3 -2.5,0.5 -1.3,0.2 -2.6,0.3 0,0 -0,0.3 -0,0.3 -0,0.7 0,0.4 0.2,0.7 0.2,0.2 0.3,0.3 0.2,0.1 0.4,0.2 0.2,0 0.4,0 0.5,0 1.1,-0 0.6,-0.1 1.1,-0.3 0.5,-0.2 1.1,-0.5 0.5,-0.3 1,-0.5 0.3,-0.1 0.4,-0.2 0.2,-0 0.3,-0 0.1,-0 0.3,-0 0.2,-0 0.4,0 0.4,0 0.5,0.3 0.1,0.3 -0,0.8 -0,0.3 -0.7,0.8 -0.6,0.4 -1.6,0.8 -1,0.4 -2.1,0.6 -1.2,0.2 -2.3,0 -1.5,-0.2 -2.3,-1.2 -0.7,-1 -0.4,-2.9 0.2,-1.2 0.9,-2.4 0.7,-1.2 1.6,-2 1,-0.9 2.2,-1.3 1.2,-0.5 2.6,-0.3 0.7,0 1.2,0.4 0.6,0.3 0.9,0.7 0.4,0.4 0.5,1 0.1,0.6 0,1.2 z m -2.1,-0.6 q 0,-0.3 -0.2,-0.7 -0.3,-0.4 -0.9,-0.4 -0.5,-0 -1.1,0.1 -0.6,0.2 -1.2,0.5 -0.6,0.3 -1.1,0.9 -0.5,0.5 -0.8,1.2 0.3,0.1 0.7,0.1 0.5,-0 1,-0.1 0.6,-0.1 1.1,-0.3 0.6,-0.2 1.1,-0.4 0.5,-0.2 0.9,-0.5 0.4,-0.3 0.5,-0.4 z"/>
</g>
<path style="color:black; overflow:visible; fill:none; stroke-width:7.6; stroke-dasharray:30.4, 30.4;" d="m 92.2,601 c 0,0 25,-14.5 42.2,-13.6 17.2,0.9 38.5,10.1 52.4,14.2 13.9,4.1 19.3,7 27.5,3.1 8.3,-3.9 16.2,-29.3 19,-38.7"/>
<path style="color:black; overflow:visible; fill:none; stroke-width:7.6; stroke-dasharray:30.4, 30.4;" d="m 236.6,564.9 c 0,0 22,-39.9 49,-40.7 27,-0.8 51.5,11.1 57.2,27.8"/>
<text x="-3.2" y="641.6" style="font-family:'Comic Sans MS'; font-size:22.7px; color:black; overflow:visible; fill:#73d216; stroke-width:1px;">Start</text>
<text x="136.9" y="762.1" style="font-family:'Comic Sans MS'; font-size:22.7px; color:black; overflow:visible; fill:#73d216; stroke-width:1px;">End</text>
</g>
</svg>
